<svg width="24" height="24" viewBox="0 0 24 24" fill="none" xmlns="http://www.w3.org/2000/svg">
<path d="M9.43995 24L8.94303 20.144C8.50469 20.0151 8.03111 19.8133 7.52231 19.5387C7.01258 19.2631 6.57927 18.968 6.22237 18.6533L2.56006 20.1667L0 15.8333L3.16541 13.5147C3.12423 13.2747 3.09083 13.0267 3.0652 12.7707C3.03775 12.5147 3.02402 12.2662 3.02402 12.0253C3.02402 11.8013 3.03775 11.5658 3.0652 11.3187C3.09083 11.0716 3.12423 10.7933 3.16541 10.484L0 8.168L2.56006 3.88533L6.19492 5.37333C6.6049 5.04178 7.04873 4.74267 7.52642 4.476C8.00229 4.20933 8.4658 4.00311 8.91695 3.85733L9.43857 0H14.5614L15.057 3.88267C15.5832 4.06222 16.048 4.268 16.4516 4.5C16.8552 4.732 17.2711 5.02267 17.6994 5.372L21.4399 3.88533L24 8.16667L20.7303 10.5613C20.8053 10.8369 20.8474 11.0898 20.8566 11.32C20.8657 11.5502 20.8703 11.7769 20.8703 12C20.8703 12.2071 20.8611 12.4253 20.8428 12.6547C20.8254 12.8849 20.7852 13.1631 20.722 13.4893L23.9396 15.8333L21.3795 20.1667L17.6994 18.628C17.272 18.9773 16.8419 19.2764 16.4091 19.5253C15.9762 19.7742 15.5255 19.972 15.057 20.1187L14.5614 24H9.43995ZM10.6273 22.6667H13.3123L13.8188 19.056C14.5106 18.8782 15.1329 18.6342 15.6857 18.324C16.2402 18.0138 16.8039 17.5889 17.3768 17.0493L20.8016 18.4667L22.1661 16.2L19.1613 14.008C19.2757 13.6284 19.3516 13.2791 19.3892 12.96C19.4258 12.6418 19.4441 12.3218 19.4441 12C19.4441 11.6622 19.4258 11.3422 19.3892 11.04C19.3525 10.7378 19.2766 10.4058 19.1613 10.044L22.2183 7.8L20.8538 5.53333L17.3507 6.96C16.9353 6.51644 16.3894 6.10089 15.7131 5.71333C15.0359 5.32667 14.3953 5.07022 13.7914 4.944L13.3727 1.33333H10.6356L10.2073 4.91867C9.51544 5.06178 8.87943 5.29289 8.29924 5.612C7.71997 5.93022 7.14344 6.368 6.56966 6.92533L3.14619 5.53333L1.78174 7.8L4.75909 9.96C4.6447 10.2587 4.56463 10.5831 4.51887 10.9333C4.47312 11.2836 4.45024 11.648 4.45024 12.0267C4.45024 12.3644 4.47312 12.7 4.51887 13.0333C4.56463 13.3667 4.63601 13.6911 4.73301 14.0067L1.78174 16.2L3.14619 18.4667L6.54358 17.0667C7.08259 17.5947 7.64173 18.0182 8.221 18.3373C8.80119 18.6564 9.45459 18.9049 10.1812 19.0827L10.6273 22.6667ZM11.9629 15.3333C12.9202 15.3333 13.7314 15.0102 14.3967 14.364C15.062 13.7178 15.3946 12.9298 15.3946 12C15.3946 11.0702 15.062 10.2822 14.3967 9.636C13.7314 8.98978 12.9202 8.66667 11.9629 8.66667C11.0002 8.66667 10.1876 8.98978 9.52505 9.636C8.8625 10.2822 8.53123 11.0702 8.53123 12C8.53123 12.9298 8.8625 13.7178 9.52505 14.364C10.1876 15.0102 11.0002 15.3333 11.9629 15.3333Z" fill="white"/>
</svg>
