<svg width="42" height="42" viewBox="0 0 42 42" fill="none" xmlns="http://www.w3.org/2000/svg">
<path d="M32.26 25.33C32.8725 23.8425 33.205 22.25 33.205 20.5C33.205 19.24 33.0125 18.0325 32.68 16.9125C31.5425 17.175 30.3525 17.315 29.11 17.315C26.5654 17.3177 24.0575 16.7086 21.7977 15.5391C19.5378 14.3696 17.5923 12.6739 16.125 10.595C14.5569 14.3938 11.5955 17.4491 7.8475 19.135C7.7775 19.5725 7.7775 20.045 7.7775 20.5C7.7775 22.1707 8.10658 23.8251 8.74594 25.3687C9.38531 26.9122 10.3224 28.3147 11.5038 29.4961C13.8898 31.8821 17.1258 33.2225 20.5 33.2225C22.3375 33.2225 24.105 32.82 25.6975 32.1025C26.695 34.01 27.15 34.955 27.115 34.955C24.245 35.9175 22.0225 36.39 20.5 36.39C16.265 36.39 12.2225 34.7275 9.2475 31.735C7.43634 29.9323 6.09097 27.7161 5.3275 25.2775H3V17.315H4.9075C5.48542 14.5019 6.81411 11.8977 8.75258 9.77875C10.6911 7.65982 13.167 6.10518 15.9177 5.27979C18.6684 4.45441 21.5912 4.38907 24.376 5.0907C27.1608 5.79234 29.7038 7.23478 31.735 9.26497C33.9396 11.4622 35.4438 14.2635 36.0575 17.315H38V25.2775H37.895L31.665 31L22.39 29.95V27.0275H30.8425L32.26 25.33ZM15.7225 20.0975C16.2475 20.0975 16.755 20.3075 17.1225 20.6925C17.4918 21.0648 17.6991 21.568 17.6991 22.0925C17.6991 22.6169 17.4918 23.1201 17.1225 23.4925C16.755 23.86 16.2475 24.07 15.7225 24.07C14.62 24.07 13.7275 23.195 13.7275 22.0925C13.7275 20.99 14.62 20.0975 15.7225 20.0975ZM25.26 20.0975C26.3625 20.0975 27.2375 20.99 27.2375 22.0925C27.2375 23.195 26.3625 24.07 25.26 24.07C24.1575 24.07 23.265 23.195 23.265 22.0925C23.265 21.5634 23.4752 21.0559 23.8493 20.6818C24.2235 20.3077 24.7309 20.0975 25.26 20.0975Z" fill="black"/>
</svg>
