<svg width="43" height="43" viewBox="0 0 43 43" fill="none" xmlns="http://www.w3.org/2000/svg">
<path d="M32.76 25.83C33.3725 24.3425 33.705 22.75 33.705 21C33.705 19.74 33.5125 18.5325 33.18 17.4125C32.0425 17.675 30.8525 17.815 29.61 17.815C27.0654 17.8177 24.5575 17.2086 22.2977 16.0391C20.0378 14.8696 18.0923 13.1739 16.625 11.095C15.0569 14.8938 12.0955 17.9491 8.3475 19.635C8.2775 20.0725 8.2775 20.545 8.2775 21C8.2775 22.6707 8.60658 24.3251 9.24594 25.8687C9.88531 27.4122 10.8224 28.8147 12.0038 29.9961C14.3898 32.3821 17.6258 33.7225 21 33.7225C22.8375 33.7225 24.605 33.32 26.1975 32.6025C27.195 34.51 27.65 35.455 27.615 35.455C24.745 36.4175 22.5225 36.89 21 36.89C16.765 36.89 12.7225 35.2275 9.7475 32.235C7.93634 30.4323 6.59097 28.2161 5.8275 25.7775H3.5V17.815H5.4075C5.98542 15.0019 7.31411 12.3977 9.25258 10.2788C11.1911 8.15982 13.667 6.60518 16.4177 5.77979C19.1684 4.95441 22.0912 4.88907 24.876 5.5907C27.6608 6.29234 30.2038 7.73478 32.235 9.76497C34.4396 11.9622 35.9438 14.7635 36.5575 17.815H38.5V25.7775H38.395L32.165 31.5L22.89 30.45V27.5275H31.3425L32.76 25.83ZM16.2225 20.5975C16.7475 20.5975 17.255 20.8075 17.6225 21.1925C17.9918 21.5648 18.1991 22.068 18.1991 22.5925C18.1991 23.1169 17.9918 23.6201 17.6225 23.9925C17.255 24.36 16.7475 24.57 16.2225 24.57C15.12 24.57 14.2275 23.695 14.2275 22.5925C14.2275 21.49 15.12 20.5975 16.2225 20.5975ZM25.76 20.5975C26.8625 20.5975 27.7375 21.49 27.7375 22.5925C27.7375 23.695 26.8625 24.57 25.76 24.57C24.6575 24.57 23.765 23.695 23.765 22.5925C23.765 22.0634 23.9752 21.5559 24.3493 21.1818C24.7235 20.8077 25.2309 20.5975 25.76 20.5975Z" fill="white"/>
</svg>
