<svg width="23" height="24" viewBox="0 0 23 24" fill="none" xmlns="http://www.w3.org/2000/svg">
<path d="M1.07886 8.70905H21.921M12.5969 13.0969H16.9847M12.5969 17.4847H14.7908M6.01515 5.41819H6.02502M10.403 5.41819H10.4128M8.20905 8.70905V22.421M1.07886 11.9999C1.07886 7.08775 1.07886 4.63058 2.60472 3.10472C4.13058 1.57886 6.58666 1.57886 11.4999 1.57886C16.4121 1.57886 18.8692 1.57886 20.3951 3.10472C21.921 4.63058 21.921 7.08666 21.921 11.9999C21.921 16.9121 21.921 19.3692 20.3951 20.8951C18.8692 22.421 16.4132 22.421 11.4999 22.421C6.58775 22.421 4.13058 22.421 2.60472 20.8951C1.07886 19.3692 1.07886 16.9132 1.07886 11.9999Z" stroke="white" stroke-width="1.64543" stroke-linecap="round" stroke-linejoin="round"/>
</svg>
