<svg width="48" height="48" viewBox="0 0 48 48" fill="none" xmlns="http://www.w3.org/2000/svg">
<path fill-rule="evenodd" clip-rule="evenodd" d="M7.5 6C7.10218 6 6.72064 6.15804 6.43934 6.43934C6.15804 6.72064 6 7.10218 6 7.5V13.5C6 13.8978 6.15804 14.2794 6.43934 14.5607C6.72064 14.842 7.10218 15 7.5 15H25.5C25.8978 15 26.2794 14.842 26.5607 14.5607C26.842 14.2794 27 13.8978 27 13.5V7.5C27 7.10218 26.842 6.72064 26.5607 6.43934C26.2794 6.15804 25.8978 6 25.5 6H7.5ZM31.5 6C31.1022 6 30.7206 6.15804 30.4393 6.43934C30.158 6.72064 30 7.10218 30 7.5V40.5C30 40.8978 30.158 41.2794 30.4393 41.5607C30.7206 41.842 31.1022 42 31.5 42H40.5C40.8978 42 41.2794 41.842 41.5607 41.5607C41.842 41.2794 42 40.8978 42 40.5V7.5C42 7.10218 41.842 6.72064 41.5607 6.43934C41.2794 6.15804 40.8978 6 40.5 6H31.5ZM6 21C6 20.6022 6.15804 20.2206 6.43934 19.9393C6.72064 19.658 7.10218 19.5 7.5 19.5H25.5C25.8978 19.5 26.2794 19.658 26.5607 19.9393C26.842 20.2206 27 20.6022 27 21V27C27 27.3978 26.842 27.7794 26.5607 28.0607C26.2794 28.342 25.8978 28.5 25.5 28.5H7.5C7.10218 28.5 6.72064 28.342 6.43934 28.0607C6.15804 27.7794 6 27.3978 6 27V21ZM7.5 33C7.10218 33 6.72064 33.158 6.43934 33.4393C6.15804 33.7206 6 34.1022 6 34.5V40.5C6 40.8978 6.15804 41.2794 6.43934 41.5607C6.72064 41.842 7.10218 42 7.5 42H25.5C25.8978 42 26.2794 41.842 26.5607 41.5607C26.842 41.2794 27 40.8978 27 40.5V34.5C27 34.1022 26.842 33.7206 26.5607 33.4393C26.2794 33.158 25.8978 33 25.5 33H7.5Z" fill="black"/>
</svg>
