<svg width="173" height="37" viewBox="0 0 173 37" fill="none" xmlns="http://www.w3.org/2000/svg">
<rect x="0.75" width="31.7143" height="37" rx="5.28571" fill="#F1F1F1"/>
<g clip-path="url(#clip0_429_1793)">
<path d="M9.78339 34.6753C9.81103 34.7102 9.83731 34.738 9.86169 34.7582C9.82016 34.774 9.79351 34.7446 9.78339 34.6753C8.97443 33.6536 6.98725 26.498 16.5788 22.4831C26.4981 18.331 26.9331 13.8318 26.9331 13.8318C27.2652 17.5592 28.5307 19.5194 19.9579 23.3696C12.0303 26.93 9.65902 33.8234 9.78339 34.6753Z" fill="#101014"/>
<path d="M6.88516 31.5232C6.91151 31.5591 6.93675 31.5878 6.96038 31.6089C6.9183 31.6231 6.89273 31.5928 6.88516 31.5232C6.11415 30.4726 4.39032 23.249 14.1224 19.588C24.1872 15.8019 24.7866 11.3216 24.7866 11.3216C24.982 15.0586 26.1749 17.0639 17.4668 20.5976C9.41417 23.8654 6.79207 30.6673 6.88516 31.5232Z" fill="#101014"/>
<path d="M11.4302 6.87296C9.60211 4.92278 9.31184 3.80326 10.1366 1.76172C10.5828 4.5894 14.2092 6.74346 23.9243 11.1323C23.7755 12.5088 23.5461 12.9407 22.9778 13.3409C22.9778 13.3409 13.2582 8.82315 11.4302 6.87296Z" fill="#101014"/>
<path d="M9.82576 9.72281C8.02851 7.74418 7.75583 6.62025 8.6125 4.5919C8.9974 7.30695 12.194 9.39183 20.9402 13.5537C21.5081 13.824 21.6342 14.5818 21.1785 15.0153C20.6337 15.5335 19.8234 15.6571 19.1527 15.3173C16.2512 13.8474 11.1033 11.1292 9.82576 9.72281Z" fill="#101014"/>
</g>
<path d="M52.5923 28.6569C51.2955 28.6569 50.1867 28.4972 49.2658 28.1777C48.3449 27.8582 47.5744 27.4447 46.9542 26.9373C46.3528 26.4299 45.8736 25.8942 45.5165 25.3304C45.1594 24.7478 44.8869 24.2028 44.699 23.6954C44.5298 23.188 44.4171 22.7745 44.3607 22.455C44.3043 22.1355 44.2761 21.9758 44.2761 21.9758H48.1664C48.1664 21.9758 48.1852 22.0885 48.2228 22.314C48.2792 22.5396 48.3919 22.8309 48.5611 23.188C48.7302 23.5262 48.9745 23.8645 49.294 24.2028C49.6323 24.5411 50.074 24.8324 50.619 25.0767C51.1828 25.3022 51.8781 25.415 52.7051 25.415C53.983 25.415 54.9509 25.1331 55.6087 24.5693C56.2853 23.9867 56.6235 23.2725 56.6235 22.4268C56.6235 21.7127 56.3698 21.1488 55.8624 20.7354C55.355 20.3031 54.6032 19.9836 53.6072 19.7769L50.8445 19.1849C49.7733 18.9594 48.7678 18.6211 47.8281 18.17C46.9072 17.719 46.1649 17.1082 45.6011 16.3377C45.0373 15.5671 44.7554 14.5805 44.7554 13.3777C44.7554 12.1185 45.0655 11.0285 45.6856 10.1076C46.3246 9.18668 47.1985 8.48192 48.3074 7.99328C49.4162 7.48586 50.7129 7.23214 52.1976 7.23214C53.6072 7.23214 54.7724 7.43887 55.6933 7.85233C56.6141 8.26579 57.3471 8.77322 57.8921 9.37462C58.4559 9.97602 58.8694 10.5774 59.1325 11.1788C59.3956 11.7802 59.5648 12.2876 59.6399 12.7011C59.7339 13.1146 59.7809 13.3213 59.7809 13.3213H56.0315C56.0315 13.3213 55.994 13.1803 55.9188 12.8984C55.8436 12.5977 55.6745 12.2594 55.4114 11.8836C55.1482 11.5077 54.7536 11.1788 54.2274 10.8969C53.7011 10.5962 52.9964 10.4459 52.1131 10.4459C50.8539 10.4459 49.933 10.7278 49.3504 11.2916C48.7866 11.8554 48.5047 12.4662 48.5047 13.124C48.5047 13.8005 48.7678 14.3267 49.294 14.7026C49.8202 15.0785 50.525 15.3698 51.4083 15.5765L54.3683 16.1967C55.4771 16.441 56.492 16.8075 57.4129 17.2961C58.3338 17.7848 59.0667 18.4332 59.6117 19.2413C60.1568 20.0306 60.4293 21.0173 60.4293 22.2013C60.4293 23.4041 60.1286 24.4941 59.5272 25.4714C58.9258 26.4487 58.0425 27.2286 56.8773 27.8112C55.7121 28.375 54.2837 28.6569 52.5923 28.6569ZM68.9639 28.6569C67.3289 28.6569 65.9381 28.2904 64.7917 27.5575C63.6453 26.8245 62.7714 25.8754 62.17 24.7102C61.5874 23.5262 61.2961 22.2577 61.2961 20.9045C61.2961 19.5514 61.5874 18.2922 62.17 17.127C62.7714 15.943 63.6453 14.9845 64.7917 14.2516C65.9381 13.5186 67.3289 13.1521 68.9639 13.1521C70.6178 13.1521 72.0085 13.5186 73.1361 14.2516C74.2825 14.9845 75.147 15.943 75.7296 17.127C76.331 18.2922 76.6317 19.5514 76.6317 20.9045C76.6317 22.2577 76.331 23.5262 75.7296 24.7102C75.147 25.8754 74.2825 26.8245 73.1361 27.5575C72.0085 28.2904 70.6178 28.6569 68.9639 28.6569ZM68.9639 25.5278C69.8096 25.5278 70.5144 25.3116 71.0782 24.8794C71.6608 24.4471 72.1025 23.8833 72.4032 23.188C72.7039 22.4738 72.8542 21.7127 72.8542 20.9045C72.8542 20.0776 72.7039 19.3165 72.4032 18.6211C72.1025 17.9257 71.6608 17.3619 71.0782 16.9297C70.5144 16.4974 69.8096 16.2813 68.9639 16.2813C68.137 16.2813 67.4322 16.4974 66.8496 16.9297C66.267 17.3619 65.8254 17.9257 65.5247 18.6211C65.224 19.3165 65.0736 20.0776 65.0736 20.9045C65.0736 21.7127 65.224 22.4738 65.5247 23.188C65.8254 23.8833 66.267 24.4471 66.8496 24.8794C67.4322 25.3116 68.137 25.5278 68.9639 25.5278ZM78.3214 28.375L78.3496 6.95024H82.0707V28.375H78.3214ZM88.6629 28.375L83.1094 13.434H86.9151L90.6644 24.09L94.3574 13.434H98.1631L92.5814 28.375H88.6629ZM105.436 28.6569C104.158 28.6569 103.049 28.4408 102.109 28.0085C101.188 27.5575 100.418 26.9655 99.7975 26.2325C99.1961 25.4808 98.745 24.6445 98.4443 23.7236C98.1436 22.8027 97.9933 21.863 97.9933 20.9045C97.9933 19.946 98.1342 19.0158 98.4161 18.1137C98.7168 17.1928 99.1585 16.3565 99.7411 15.6047C100.342 14.853 101.104 14.261 102.025 13.8287C102.945 13.3777 104.035 13.1521 105.295 13.1521C106.648 13.1521 107.841 13.4528 108.875 14.0542C109.908 14.6556 110.717 15.5389 111.299 16.7041C111.882 17.8506 112.173 19.2789 112.173 20.9891V21.9476H101.771C101.827 22.9624 102.175 23.8457 102.814 24.5975C103.453 25.3304 104.327 25.6969 105.436 25.6969C106.075 25.6969 106.601 25.5935 107.014 25.3868C107.428 25.1801 107.747 24.9452 107.973 24.682C108.198 24.4001 108.358 24.1652 108.452 23.9773C108.546 23.7706 108.593 23.6672 108.593 23.6672H112.06C112.06 23.6672 112.013 23.8363 111.919 24.1746C111.825 24.4941 111.647 24.9076 111.384 25.415C111.139 25.9036 110.773 26.4017 110.284 26.9091C109.796 27.3977 109.157 27.8112 108.367 28.1495C107.578 28.4878 106.601 28.6569 105.436 28.6569ZM101.771 19.495H108.565C108.508 18.3298 108.161 17.4653 107.522 16.9015C106.883 16.3377 106.131 16.0558 105.266 16.0558C104.308 16.0558 103.509 16.3659 102.87 16.986C102.231 17.5874 101.865 18.4238 101.771 19.495ZM113.58 28.375V13.434H117.33V15.5765H117.499C117.649 15.3134 117.884 14.9939 118.204 14.618C118.523 14.2234 118.965 13.8851 119.529 13.6032C120.092 13.3025 120.807 13.1521 121.671 13.1521C122.818 13.1521 123.757 13.4153 124.49 13.9415C125.242 14.4489 125.796 15.1255 126.153 15.9712C126.529 16.8169 126.717 17.7284 126.717 18.7057V28.375H122.968V19.2131C122.968 18.405 122.742 17.7096 122.291 17.127C121.84 16.5444 121.164 16.2531 120.262 16.2531C119.566 16.2531 119.002 16.4316 118.57 16.7887C118.138 17.127 117.818 17.5687 117.612 18.1137C117.424 18.6587 117.33 19.2319 117.33 19.8333V28.375H113.58ZM134.736 28.6569C133.627 28.6569 132.659 28.4408 131.832 28.0085C131.005 27.5575 130.31 26.9655 129.746 26.2325C129.201 25.4808 128.787 24.6445 128.506 23.7236C128.242 22.8027 128.111 21.863 128.111 20.9045C128.111 19.946 128.242 19.0064 128.506 18.0855C128.787 17.1646 129.201 16.3377 129.746 15.6047C130.31 14.853 131.005 14.261 131.832 13.8287C132.659 13.3777 133.627 13.1521 134.736 13.1521C135.694 13.1521 136.483 13.3119 137.104 13.6314C137.724 13.9321 138.212 14.2704 138.57 14.6462C138.927 15.0033 139.171 15.2946 139.302 15.5201H139.472V6.95024H143.221V28.375H139.472V26.2889H139.302C139.171 26.5144 138.927 26.8151 138.57 27.191C138.212 27.5669 137.724 27.9052 137.104 28.2059C136.483 28.5066 135.694 28.6569 134.736 28.6569ZM135.722 25.5841C136.568 25.5841 137.273 25.3586 137.837 24.9076C138.4 24.4377 138.823 23.8457 139.105 23.1316C139.387 22.4174 139.528 21.6751 139.528 20.9045C139.528 20.134 139.387 19.3916 139.105 18.6775C138.823 17.9633 138.4 17.3807 137.837 16.9297C137.273 16.4598 136.568 16.2249 135.722 16.2249C134.877 16.2249 134.162 16.4598 133.58 16.9297C133.016 17.3807 132.593 17.9633 132.311 18.6775C132.029 19.3916 131.888 20.134 131.888 20.9045C131.888 21.6751 132.029 22.4174 132.311 23.1316C132.593 23.8457 133.016 24.4377 133.58 24.9076C134.162 25.3586 134.877 25.5841 135.722 25.5841ZM152.572 28.6569C150.937 28.6569 149.546 28.2904 148.4 27.5575C147.253 26.8245 146.379 25.8754 145.778 24.7102C145.195 23.5262 144.904 22.2577 144.904 20.9045C144.904 19.5514 145.195 18.2922 145.778 17.127C146.379 15.943 147.253 14.9845 148.4 14.2516C149.546 13.5186 150.937 13.1521 152.572 13.1521C154.226 13.1521 155.616 13.5186 156.744 14.2516C157.89 14.9845 158.755 15.943 159.338 17.127C159.939 18.2922 160.24 19.5514 160.24 20.9045C160.24 22.2577 159.939 23.5262 159.338 24.7102C158.755 25.8754 157.89 26.8245 156.744 27.5575C155.616 28.2904 154.226 28.6569 152.572 28.6569ZM152.572 25.5278C153.418 25.5278 154.122 25.3116 154.686 24.8794C155.269 24.4471 155.71 23.8833 156.011 23.188C156.312 22.4738 156.462 21.7127 156.462 20.9045C156.462 20.0776 156.312 19.3165 156.011 18.6211C155.71 17.9257 155.269 17.3619 154.686 16.9297C154.122 16.4974 153.418 16.2813 152.572 16.2813C151.745 16.2813 151.04 16.4974 150.458 16.9297C149.875 17.3619 149.433 17.9257 149.133 18.6211C148.832 19.3165 148.682 20.0776 148.682 20.9045C148.682 21.7127 148.832 22.4738 149.133 23.188C149.433 23.8833 149.875 24.4471 150.458 24.8794C151.04 25.3116 151.745 25.5278 152.572 25.5278Z" fill="#F1F1F1"/>
<defs>
<clipPath id="clip0_429_1793">
<rect width="21.5833" height="33.0256" fill="white" transform="translate(5.81546 1.9873)"/>
</clipPath>
</defs>
</svg>
